<svg width="32" height="32" viewBox="0 0 454 493" fill="none" xmlns="http://www.w3.org/2000/svg">
<path d="M285.307 2L268.342 36.7404L75.329 36.4221L3 104.523L36.9504 186.094L16.2849 207.047L14.8088 320.794L74.502 489.822L242.129 453.255L339.553 386.651L345.458 355.222L433.287 341.75L451 240.722L344.721 79.4031L389.004 2H285.307Z" fill="#FFFFFF" stroke="#FFFFFF" stroke-width="4" stroke-miterlimit="10"/>
<g opacity="0.5">
<path opacity="0.5" d="M195.92 333.74H97.3977V353.643H195.92V333.74Z" fill="white"/>
<path opacity="0.5" d="M100.635 298.807L99.2759 318.664L195.92 326.835V305.273L100.635 298.807Z" fill="white"/>
<path opacity="0.5" d="M109.845 255.311L104.85 274.583L197.406 300.013L202.691 279.84L109.845 255.311Z" fill="white"/>
<path opacity="0.5" d="M131.303 208.041L121.247 225.242L203.41 274.692L213.993 256.702L131.303 208.041Z" fill="white"/>
</g>
</svg>
